<svg
    xmlns="http://www.w3.org/2000/svg"
    viewBox="0 0 30 30"
    width="24"
    height="24"
    fill="none"
    stroke="currentColor"
    strokeWidth="1.7"
    strokeLinecap="round"
    strokeLinejoin="round"
    {...props}
  >
    <path d="M 15 3 C 8.373 3 3 8.373 3 15 C 3 17.25 3.63 19.35 4.71 21.15 L 3.11 27 L 9.08 25.43 C 10.83 26.42 12.85 27 15 27 C 21.627 27 27 21.627 27 15 C 27 8.373 21.627 3 15 3 z" />
    <path d="M 10.89 9.4 C 11.08 9.4 11.29 9.4 11.46 9.41 C 11.67 9.41 11.9 9.43 12.13 9.92 C 12.39 10.51 12.97 11.98 13.05 12.13 C 13.12 12.28 13.17 12.45 13.07 12.65 C 12.97 12.85 12.92 12.97 12.77 13.15 C 12.63 13.32 12.47 13.53 12.33 13.66 C 12.18 13.81 12.03 13.97 12.2 14.27 C 12.37 14.57 12.97 15.54 13.85 16.33 C 14.98 17.34 15.94 17.65 16.24 17.8 C 16.54 17.95 16.71 17.93 16.88 17.73 C 17.06 17.53 17.63 16.86 17.83 16.57 C 18.02 16.27 18.22 16.32 18.49 16.42 C 18.77 16.52 20.23 17.24 20.53 17.38 C 20.82 17.53 21.02 17.61 21.09 17.73 C 21.17 17.85 21.17 18.45 20.92 19.14 C 20.68 19.84 19.46 20.51 18.92 20.55 C 18.37 20.6 17.86 20.8 15.35 19.81 C 12.33 18.62 10.42 15.52 10.27 15.32 C 10.12 15.13 9.06 13.71 9.06 12.25 C 9.06 10.79 9.83 10.07 10.1 9.77 C 10.37 9.48 10.69 9.4 10.89 9.4 z" />
  </svg>